<?xml version="1.0" encoding="UTF-8" standalone="no"?>
<!-- Generator: Adobe Illustrator 27.3.0, SVG Export Plug-In . SVG Version: 6.00 Build 0)  -->

<svg
   version="1.1"
   id="Layer_1"
   x="0px"
   y="0px"
   viewBox="0 0 1763.5 1763.5"
   style="enable-background:new 0 0 1763.5 1763.5;"
   xml:space="preserve"
   sodipodi:docname="logo.svg"
   inkscape:version="1.4.1 (93de688d07, 2025-03-30)"
   xmlns:inkscape="http://www.inkscape.org/namespaces/inkscape"
   xmlns:sodipodi="http://sodipodi.sourceforge.net/DTD/sodipodi-0.dtd"
   xmlns="http://www.w3.org/2000/svg"
   xmlns:svg="http://www.w3.org/2000/svg"><defs
   id="defs3" /><sodipodi:namedview
   id="namedview3"
   pagecolor="#505050"
   bordercolor="#eeeeee"
   borderopacity="1"
   inkscape:showpageshadow="0"
   inkscape:pageopacity="0"
   inkscape:pagecheckerboard="0"
   inkscape:deskcolor="#d1d1d1"
   inkscape:zoom="0.24553445"
   inkscape:cx="488.72979"
   inkscape:cy="997.82333"
   inkscape:window-width="2026"
   inkscape:window-height="1070"
   inkscape:window-x="3729"
   inkscape:window-y="5"
   inkscape:window-maximized="1"
   inkscape:current-layer="Layer_1" />
<style
   type="text/css"
   id="style1">
	.st0{fill:url(#SVGID_1_);}
</style>
<linearGradient
   id="SVGID_1_"
   gradientUnits="userSpaceOnUse"
   x1="77.5448"
   y1="645.1022"
   x2="1742.8217"
   y2="1119.2615"
   gradientTransform="matrix(1 0 0 -1 0 1761.9454)">
	<stop
   offset="9.701765e-04"
   style="stop-color:#3638AE"
   id="stop1" />
	<stop
   offset="0.3168"
   style="stop-color:#5846BC"
   id="stop2" />
	<stop
   offset="1"
   style="stop-color:#AB68DE"
   id="stop3" />
</linearGradient>

<path
   fill-rule="evenodd"
   clip-rule="evenodd"
   d="m 851.96518,293.28644 -132.01606,132.01605 0.0722,0.0722 -17.68394,17.68395 c -1.87594,1.87666 -4.33076,2.88717 -6.92922,2.88717 -5.41345,0 -9.81639,-4.40294 -9.81639,-9.81639 V 287.15119 c 0,-11.98177 4.76383,-23.45829 13.20882,-31.90328 l 117.7967,-117.79672 c 12.92011,-12.99221 29.377,-20.13811 46.26697,-21.65381 3.10371,-0.28871 6.13525,-0.28871 9.23896,0 16.88997,1.5157 33.34687,8.73364 46.26697,21.65381 l 117.72451,117.8689 c 8.445,8.44499 13.2089,19.92151 13.2089,31.90328 v 148.97821 c 0,5.34127 -4.3308,9.74421 -9.7443,9.74421 -2.5984,0 -5.1247,-1.08269 -6.9292,-2.88717 l -58.39308,-58.39311 -91.37907,-91.37907 c -4.33077,-4.33076 -9.8164,-6.71268 -15.44639,-7.21794 -5.62999,0.50526 -11.11562,2.88718 -15.44638,7.21794 z M 1625.728,844.80893 c 12.9923,12.9923 20.138,29.4492 21.6538,46.3392 l -0.072,-0.1444 c 0.2887,3.1037 0.2887,6.1353 0,9.239 -1.5157,16.8899 -8.7337,33.3468 -21.6538,46.2669 l -117.7967,117.79677 c -8.445,8.4449 -19.9215,13.2088 -31.9033,13.2088 h -148.9784 c -5.3413,0 -9.7442,-4.3308 -9.7442,-9.7442 0,-2.5985 1.0826,-5.1248 2.8871,-6.9292 l 58.3931,-58.3932 91.3792,-91.37897 c 4.3307,-4.3308 6.7126,-9.8164 7.2179,-15.4464 -0.5053,-5.63 -2.8872,-11.1156 -7.2179,-15.4464 l -132.0161,-132.01605 -17.684,-17.68394 c -1.8767,-1.87666 -2.8872,-4.33076 -2.8872,-6.92922 0,-5.34127 4.3308,-9.74421 9.7443,-9.74421 h 148.9782 c 11.9818,0 23.4583,4.76383 31.9033,13.20882 z m -866.15241,50.9587 c 0,-59.6924 48.36018,-108.05256 108.05251,-108.05256 59.69233,0 108.05251,48.36016 108.05251,108.05256 0,59.6923 -48.36018,108.05247 -108.05251,108.05247 -59.69233,0 -108.05251,-48.36017 -108.05251,-108.05247 z M 417.58977,1067.9153 c 0,-2.5984 -1.01051,-5.1247 -2.88717,-6.9292 L 264.93042,911.21393 c -4.33076,-4.3307 -6.71196,-9.8164 -7.21794,-15.4463 0.50598,-5.63 2.88718,-11.1157 7.21794,-15.4464 L 396.94647,748.30514 414.63042,730.6212 c 1.80448,-1.80449 2.88717,-4.33076 2.88717,-6.92922 0,-5.41345 -4.40294,-9.81639 -9.81639,-9.81639 H 258.79517 c -11.98177,0 -23.45829,4.76383 -31.90328,13.20882 L 109.16757,844.88113 c -12.920389,12.9201 -20.138329,29.377 -21.653809,46.267 -0.28872,3.1037 -0.28872,6.1352 0,9.2389 1.51548,16.89 8.66116,33.3469 21.653809,46.3392 l 117.7965,117.79667 c 8.44499,8.445 19.92151,13.2088 31.90328,13.2088 h 148.90603 c 5.41345,0 9.81639,-4.4029 9.81639,-9.8164 z m 556.79161,338.8821 -91.37908,91.3791 c -4.33076,4.3308 -9.81639,6.7127 -15.44638,7.218 -5.62999,-0.5053 -11.11562,-2.8872 -15.44638,-7.218 L 702.33736,1348.4043 c -1.80449,-1.8044 -4.33076,-2.8871 -6.92922,-2.8871 -5.41345,0 -9.74421,4.4029 -9.74421,9.7442 v 148.9782 c 0,11.9818 4.76456,23.3861 13.20882,31.8311 l 117.79672,117.7967 c 12.92011,12.9201 29.377,20.138 46.26697,21.6538 3.10371,0.2887 6.13525,0.2887 9.23896,0 16.88997,-1.5158 33.34687,-8.6615 46.26697,-21.6538 l 117.79673,-117.7967 c 8.445,-8.445 13.2088,-19.9215 13.2088,-31.9033 v -148.9782 c 0,-5.4135 -4.4029,-9.7442 -9.7442,-9.7442 -2.5985,0 -5.0525,1.0105 -6.9292,2.8872 l -58.39312,58.3931 z M 1282.5151,458.79444 h -186.728 l 0.072,0.0722 h -25.0463 c -2.5984,0 -5.1247,-1.08269 -6.9292,-2.88718 -3.8255,-3.8255 -3.8255,-10.03293 0,-13.85843 l 105.3097,-105.30971 c 8.445,-8.44499 19.9215,-13.20883 31.9033,-13.20883 h 166.5899 c 18.2614,0 35.007,6.56832 47.9993,17.46741 2.3097,1.94884 4.4751,4.11422 6.4962,6.49614 10.899,12.99229 17.4674,29.7379 17.4674,47.99928 v 166.58997 c 0,11.98177 -4.7639,23.45829 -13.2089,31.90328 L 1321.131,699.36826 c -3.8255,3.8255 -10.0329,3.8255 -13.8584,0 -1.8767,-1.87667 -2.8872,-4.33077 -2.8872,-6.92922 V 480.66479 c 0,-6.06307 -2.2375,-11.69306 -5.8465,-16.02382 -4.3308,-3.68115 -9.8886,-5.84653 -16.0238,-5.84653 z M 581.65419,1332.7414 H 452.38095 c -6.13525,0 -11.76524,-2.1654 -16.02382,-5.8465 -3.60897,-4.403 -5.84725,-9.9608 -5.84725,-16.096 v -211.7743 c 0,-2.5984 -1.01051,-5.0525 -2.88718,-6.9292 -3.82478,-3.8255 -10.03293,-3.8255 -13.85771,0 l -105.31041,105.3097 c -8.44427,8.445 -13.20811,19.9215 -13.20811,31.8311 v 166.59 c 0,18.2614 6.56833,35.007 17.46741,47.9993 2.0203,2.3819 4.1864,4.5473 6.49542,6.4961 12.99301,10.8991 29.7379,17.4674 47.99928,17.4674 h 166.59069 c 11.98105,0 23.38611,-4.7638 31.83038,-13.2088 l 105.31041,-105.3097 c 3.82478,-3.8255 3.82478,-10.0329 0,-13.8584 -1.80449,-1.8045 -4.33149,-2.8872 -6.92994,-2.8872 H 581.50983 Z M 413.83717,699.36826 308.52675,594.05857 v -0.0722 c -8.44426,-8.44571 -13.2081,-19.92223 -13.2081,-31.904 V 395.49314 c 0,-18.26138 6.56832,-35.00699 17.46741,-47.99928 1.94812,-2.30974 4.11422,-4.47512 6.49542,-6.49614 12.99301,-10.89909 29.7379,-17.46741 47.99928,-17.46741 h 166.59069 c 11.98105,0 23.45829,4.76384 31.90255,13.2081 l 105.31042,105.31042 c 3.82478,3.8255 3.82478,10.03293 0,13.85843 -1.87667,1.87667 -4.33149,2.88646 -6.92994,2.88646 H 452.45313 c -6.06307,0 -11.69306,2.23756 -16.02382,5.84653 -3.68115,4.25858 -5.84653,9.88929 -5.84653,16.02381 v 211.77498 c 0,2.59845 -1.08341,5.12473 -2.8879,6.92922 -3.82478,3.8255 -10.03293,3.8255 -13.85771,0 z m 874.88533,17.32232 c -1.8045,-1.80448 -4.3308,-2.81499 -6.9292,-2.81499 l -211.1246,0.64961 c -6.1353,0 -11.6931,-2.16538 -16.0239,-5.84653 -3.6089,-4.33076 -5.8465,-9.96075 -5.8465,-16.02382 l 0.6496,-210.83592 c 0,-2.74281 -1.0827,-5.41345 -3.0315,-7.36229 -4.0421,-4.04205 -10.6104,-4.04205 -14.6524,0 L 883.07448,624.01228 c -4.33076,4.33076 -9.81639,6.71268 -15.44638,7.21794 -5.62999,-0.50526 -11.11562,-2.88718 -15.44638,-7.21794 L 703.49223,474.45664 c -4.04277,-4.04205 -10.61037,-4.11422 -14.65241,0 -1.94957,1.94884 -3.03226,4.61948 -3.03226,7.36229 l 0.64962,210.83592 c 0,6.13525 -2.16538,11.76524 -5.84653,16.02382 -4.33076,3.60897 -9.96147,5.84653 -16.02382,5.84653 l -211.12464,-0.64961 c -2.59845,0 -5.12473,1.01051 -6.92921,2.88717 l -0.57744,0.57744 c -3.82478,3.8255 -3.82478,10.03293 0,13.85843 l 149.98944,149.0504 c 4.33004,4.3307 6.71268,9.8164 7.21793,15.4464 -0.50525,5.63 -2.88789,11.1156 -7.21793,15.4464 l -149.7,148.83377 c -1.87666,1.8045 -2.88717,4.3308 -2.88717,6.9292 v 0.8662 c 0,5.4134 4.40221,9.8164 9.81567,9.7442 l 211.48625,-0.6496 c 6.13525,0 11.76524,2.1654 16.02382,5.8465 3.60897,4.4029 5.84653,9.9608 5.84653,16.096 l -0.64962,211.1246 c 0,2.5985 1.01052,5.1248 2.8879,6.9293 l 0.57744,0.5774 c 3.82478,3.8255 10.03221,3.8255 13.85843,0 l 149.05039,-149.9887 c 4.33076,-4.3308 9.81639,-6.7127 15.44638,-7.218 5.62999,0.5053 11.11562,2.8872 15.44639,7.218 l 148.83381,149.7 c 1.8045,1.8766 4.3308,2.8871 6.9293,2.8871 h 0.8661 c 5.4135,0 9.8164,-4.4029 9.7442,-9.8163 l -0.6496,-211.4856 c 0,-6.1352 2.1654,-11.693 5.8465,-16.0238 4.3308,-3.609 9.9608,-5.8465 16.0239,-5.8465 l 211.4855,0.6496 c 5.4134,0 9.8164,-4.3308 9.8164,-9.7442 v -0.8662 c 0,-2.5984 -1.0105,-5.0525 -2.8872,-6.9292 l -51.1752,-51.1752 c -1.7323,-1.7323 -3.6811,-3.248 -5.63,-4.6916 l -92.967,-92.96697 c -4.3307,-4.3308 -6.7127,-9.8164 -7.2179,-15.4464 0.5052,-5.63 2.8872,-11.1157 7.2179,-15.4464 l 149.9166,-149.0504 c 3.8255,-3.8255 3.8255,-10.10511 0,-13.93061 z m -228.9529,229.96345 49.0819,49.082 h -69.4365 c -18.911,0 -36.0897,7.07347 -49.29852,18.55007 -1.44359,1.227 -2.815,2.5984 -4.04205,4.042 -11.54869,13.2088 -18.55009,30.4597 -18.55009,49.2985 v 69.4366 l -49.08197,-49.082 c -13.35318,-13.3532 -30.53187,-20.5711 -47.99927,-21.726 -0.93112,-0.072 -1.87667,-0.1083 -2.82222,-0.1083 -0.9672,0 -1.9344,0.036 -2.87995,0.1083 -17.46741,1.1549 -34.6461,8.3728 -47.99928,21.726 l -49.08197,49.082 v -69.4366 c 0,-18.911 -7.07358,-36.0897 -18.62299,-49.2985 -1.22633,-1.4436 -2.59846,-2.815 -4.04133,-4.042 -13.20882,-11.5487 -30.45969,-18.55007 -49.37068,-18.55007 h -69.43655 l 49.08197,-49.082 c 13.35246,-13.3532 20.57039,-30.5319 21.72599,-47.9993 0.14435,-1.8766 0.14435,-3.8255 0,-5.7021 -1.1556,-17.4675 -8.37353,-34.6461 -21.72599,-47.9993 l -49.08197,-49.08199 h 69.43655 c 18.91099,0 36.16186,-7.07358 49.37068,-18.62227 0.79037,-0.67127 1.55836,-1.38657 2.29314,-2.13363 0.60631,-0.61713 1.19313,-1.25519 1.74819,-1.90842 11.54941,-13.20882 18.62299,-30.45969 18.62299,-49.37068 v -69.43655 l 49.08197,49.08197 c 13.35318,13.35318 30.53187,20.57112 47.99928,21.72599 1.87666,0.14435 3.8255,0.14435 5.70217,0 17.4674,-1.15487 34.64609,-8.37281 47.99927,-21.72599 l 49.08197,-49.08197 v 69.43655 c 0,18.91099 7.07358,36.16186 18.55009,49.37068 1.22705,1.44359 2.59846,2.815 4.04205,4.04205 13.20882,11.54869 30.45972,18.62227 49.29852,18.62227 h 69.4365 l -49.0819,49.08199 c -13.3532,13.3532 -20.5711,30.5318 -21.726,47.9993 -0.1444,1.8766 -0.1444,3.8255 0,5.7021 1.1549,17.4674 8.3728,34.6461 21.726,47.9993 z m 261.3614,145.51357 105.3097,105.3097 -0.072,0.1443 c 8.445,8.5172 13.2089,19.9216 13.2089,31.9033 v 166.59 c 0,18.2614 -6.5684,35.007 -17.4674,47.9993 -1.9489,2.3097 -4.1143,4.5473 -6.4962,6.4961 -12.9923,10.8991 -29.7379,17.4674 -47.9993,17.4674 h -166.5899 c -11.9818,0 -23.4583,-4.7638 -31.9033,-13.2088 l -105.3097,-105.3097 c -3.8255,-3.8255 -3.8255,-10.0329 0,-13.8584 1.8767,-1.8767 4.3308,-2.8872 6.9292,-2.8872 h 211.7743 c 6.0631,0 11.693,-2.2376 16.0238,-5.8465 3.6811,-4.403 5.8465,-9.9608 5.8465,-16.096 v -211.7743 c 0,-2.5984 1.0827,-5.1247 2.8872,-6.9292 3.8255,-3.8255 10.0329,-3.8255 13.8584,0 z"
   fill="#070707"
   id="path1"
   style="fill:#ee274d;fill-opacity:1;stroke-width:1" /></svg>
